<svg width="64" height="64" viewBox="0 0 64 64" fill="none" xmlns="http://www.w3.org/2000/svg">
  <defs>
    <linearGradient id="bg" x1="10" y1="8" x2="54" y2="58" gradientUnits="userSpaceOnUse">
      <stop offset="0" stop-color="#FDE68A"/>
      <stop offset="0.28" stop-color="#F59E0B"/>
      <stop offset="0.58" stop-color="#F97316"/>
      <stop offset="1" stop-color="#4F46E5"/>
    </linearGradient>
    <linearGradient id="trail" x1="20" y1="18" x2="43" y2="45" gradientUnits="userSpaceOnUse">
      <stop offset="0" stop-color="#FFF7ED" stop-opacity="0.98"/>
      <stop offset="1" stop-color="#FFFFFF" stop-opacity="0.76"/>
    </linearGradient>
  </defs>

  <rect x="6" y="6" width="52" height="52" rx="18" fill="url(#bg)"/>
  <rect x="15" y="15" width="34" height="34" rx="12" stroke="rgba(255,255,255,0.72)" stroke-width="3"/>

  <path d="M24 22H34.5C39.7 22 43 25 43 29.7C43 33 41.2 35.4 37.8 36.3L42.7 42H36.8L32.6 36.9H29.1V42H24V22ZM29.1 26.1V32.9H34C37.1 32.9 38.1 31.3 38.1 29.5C38.1 27.6 36.9 26.1 34 26.1H29.1Z" fill="url(#trail)"/>

  <circle cx="47" cy="17" r="4" fill="#FFF7ED"/>
  <circle cx="17" cy="47" r="3.5" fill="#FFF7ED" fill-opacity="0.9"/>
</svg>
